<?xml version="1.0" encoding="UTF-8"?>
<svg id="Product-Lockups" xmlns="http://www.w3.org/2000/svg" xmlns:xlink="http://www.w3.org/1999/xlink" viewBox="0 0 2000 529.25">
  <defs>
    <style>
      .cls-1 {
        fill: url(#linear-gradient);
      }

      .cls-2 {
        fill: #18155c;
      }
    </style>
    <linearGradient id="linear-gradient" x1="1088.64" y1="451.04" x2="1939.99" y2="451.04" gradientUnits="userSpaceOnUse">
      <stop offset="0" stop-color="#3a00f4"/>
      <stop offset="1" stop-color="#f500e9"/>
    </linearGradient>
  </defs>
  <g>
    <path class="cls-2" d="M0,7.93h42.97v89.25c13.22-15.54,31.73-23.8,53.55-23.8,39.67,0,65.78,25.79,65.78,65.45v107.11h-42.97v-93.22c0-22.81-14.54-37.68-36.69-37.68-23.8,0-39.67,15.21-39.67,38.34v92.56H0V7.93Z"/>
    <path class="cls-2" d="M185.45,161.65c0-50.25,39.01-88.26,90.58-88.26s90.57,38.02,90.57,88.26-39.01,88.26-90.57,88.26-90.58-38.01-90.58-88.26ZM322.31,161.65c0-26.45-19.5-46.61-46.28-46.61s-46.28,20.16-46.28,46.61,19.84,46.61,46.28,46.61,46.28-20.16,46.28-46.61Z"/>
    <path class="cls-2" d="M390.74,77.35h42.97v17.52c12.56-14.21,29.42-21.49,49.92-21.49,24.13,0,43.31,10.91,53.55,29.09,13.22-18.84,33.06-29.09,57.85-29.09,37.02,0,61.82,24.79,61.82,62.81v109.75h-42.97v-96.86c0-20.5-12.89-34.05-33.06-34.05-21.16,0-35.37,13.88-35.37,34.71v96.2h-42.97v-96.86c0-20.5-13.22-34.05-33.06-34.05-21.16,0-35.7,13.88-35.7,34.71v96.2h-42.97V77.35Z"/>
    <path class="cls-2" d="M680,161.65c0-50.25,39.01-88.26,90.58-88.26s90.58,38.02,90.58,88.93c0,4.63-.33,9.92-1.32,14.21h-133.88c5.62,21.82,23.14,36.03,46.28,36.03,17.52,0,32.07-7.93,39.67-18.84h46.61c-12.89,33.39-46.28,56.2-87.27,56.2-52.23,0-91.24-38.01-91.24-88.26ZM726.28,145.12h88.92c-5.29-20.49-22.48-34.38-44.63-34.38s-38.34,13.55-44.3,34.38Z"/>
    <path class="cls-2" d="M885.29,7.93h42.97v89.25c13.55-14.87,32.4-23.8,54.88-23.8,46.94,0,81.98,38.02,81.98,88.26s-35.04,88.26-81.98,88.26c-22.48,0-41.32-8.92-54.88-23.8v19.83h-42.97V7.93ZM1020.82,161.65c0-26.45-19.5-46.61-46.28-46.61s-46.28,20.16-46.28,46.61,19.84,46.61,46.28,46.61,46.28-20.16,46.28-46.61Z"/>
    <path class="cls-2" d="M1090.25,77.35h42.97v25.45c13.22-17.52,31.4-28.1,53.55-28.1h6.28v44.3h-6.28c-34.38,0-53.55,18.18-53.55,46.61v80.33h-42.97V77.35Z"/>
    <path class="cls-2" d="M1208.92,26.78c0-15.21,11.9-26.78,27.11-26.78s27.1,11.57,27.1,26.78-11.9,26.78-27.1,26.78-27.11-11.57-27.11-26.78ZM1214.54,77.35h42.97v168.59h-42.97V77.35Z"/>
    <path class="cls-2" d="M1282.97,161.65c0-50.25,35.37-88.26,82.31-88.26,22.48,0,41.32,8.93,54.88,23.8V7.93h42.97v238.01h-42.97v-19.83c-13.55,14.87-32.4,23.8-54.88,23.8-46.94,0-82.31-38.01-82.31-88.26ZM1420.16,161.65c0-26.45-19.84-46.61-46.61-46.61s-46.28,20.16-46.28,46.61,19.83,46.61,46.28,46.61,46.61-20.16,46.61-46.61Z"/>
    <path class="cls-2" d="M1488.92,157.35c0-47.6,35.37-83.97,81.98-83.97,22.81,0,41.65,8.6,55.21,23.14v-19.17h42.97v150.41c0,51.24-34.71,84.96-86.61,84.96-43.63,0-77.35-23.47-83.96-60.16h44.3c4.96,13.55,21.16,22.15,40,22.15,26.45,0,43.31-16.86,43.31-44.96v-11.24c-13.55,14.22-32.4,22.81-54.88,22.81-46.94,0-82.31-36.03-82.31-83.96ZM1626.11,157.35c0-24.79-20.17-43.64-46.28-43.64s-46.61,18.84-46.61,43.64,19.83,43.97,46.61,43.97,46.28-18.84,46.28-43.97Z"/>
    <path class="cls-2" d="M1692.56,161.65c0-50.25,39.01-88.26,90.58-88.26s90.57,38.02,90.57,88.93c0,4.63-.33,9.92-1.32,14.21h-133.88c5.62,21.82,23.14,36.03,46.28,36.03,17.52,0,32.07-7.93,39.67-18.84h46.61c-12.89,33.39-46.28,56.2-87.27,56.2-52.23,0-91.24-38.01-91.24-88.26ZM1738.84,145.12h88.93c-5.29-20.49-22.48-34.38-44.63-34.38s-38.35,13.55-44.3,34.38Z"/>
    <path class="cls-2" d="M1897.19,77.35h42.97v25.45c13.22-17.52,31.4-28.1,53.55-28.1h6.28v44.3h-6.28c-34.38,0-53.55,18.18-53.55,46.61v80.33h-42.97V77.35Z"/>
  </g>
  <g>
    <path class="cls-2" d="M871.27,376.89h21.49v44.63c6.78-7.44,16.2-11.9,27.44-11.9,23.47,0,40.99,19.01,40.99,44.13s-17.52,44.13-40.99,44.13c-11.24,0-20.66-4.46-27.44-11.9v9.92h-21.49v-119.01ZM939.04,453.75c0-13.22-9.75-23.3-23.14-23.3s-23.14,10.08-23.14,23.3,9.92,23.31,23.14,23.31,23.14-10.08,23.14-23.31Z"/>
    <path class="cls-2" d="M994.25,495.07l-34.54-83.47h24.46l21.82,57.35,21.82-57.35h24.13l-48.1,115.7h-23.14l13.55-32.23Z"/>
  </g>
  <path class="cls-2" d="M2000,389.07v101.95c0,17.35-10.08,26.61-29.42,26.61h-10.27c-.71,0-1.29-.58-1.29-1.29v-17.08c0-.71.58-1.29,1.29-1.29h7.13c6.95,0,11.07-3.97,11.07-10.57v-94.68c0-6.62-4.12-10.58-11.07-10.58h-7.13c-.71,0-1.29-.57-1.29-1.28v-17.1c0-.71.58-1.28,1.29-1.28h10.27c19.34,0,29.42,9.25,29.42,26.59Z"/>
  <path class="cls-2" d="M818.48,487.4c0,6.6,4.12,10.57,11.07,10.57h7.13c.71,0,1.29.58,1.29,1.29v17.08c0,.71-.58,1.29-1.29,1.29h-10.27c-19.34,0-29.42-9.25-29.42-26.61v-101.95c0-17.34,10.08-26.59,29.42-26.59h10.27c.71,0,1.29.57,1.29,1.28v17.1c0,.71-.58,1.28-1.29,1.28h-7.13c-6.95,0-11.07,3.97-11.07,10.58v94.68Z"/>
  <path class="cls-1" d="M1150.15,453.69c0-25.13,19.51-44.15,45.31-44.15s45.31,19.01,45.31,44.48c0,2.31-.17,4.96-.66,7.11h-66.97c2.81,10.91,11.57,18.02,23.15,18.02,8.48,0,15.57-3.72,19.46-8.9.24-.33.62-.52,1.02-.52h20.74c.94,0,1.55.97,1.17,1.83-6.93,15.7-23.15,26.28-42.9,26.28-26.12,0-45.64-19.01-45.64-44.15ZM1173.3,445.42h44.48c-2.64-10.25-11.24-17.2-22.32-17.2s-19.18,6.78-22.16,17.2ZM1247.37,453.69c0-25.13,19.51-44.15,45.31-44.15,21.91,0,39.11,13.66,43.04,32.86.16.79-.46,1.53-1.27,1.53h-20.38c-.53,0-1-.34-1.19-.83-2.99-7.49-10.47-12.52-19.63-12.72-12.94-.28-23.71,10.37-23.71,23.31,0,13.23,9.92,23.31,23.15,23.31,9.42,0,17.14-5.09,20.19-12.73.2-.49.66-.83,1.19-.83h20.38c.81,0,1.43.74,1.27,1.53-3.93,19.21-21.13,32.87-43.04,32.87-25.79,0-45.31-19.01-45.31-44.15ZM1549.41,411.52h18.92c.71,0,1.29.58,1.29,1.29v11.45c6.61-8.76,15.71-14.06,26.79-14.06h1.85c.71,0,1.29.58,1.29,1.29v19.58c0,.71-.58,1.29-1.29,1.29h-1.85c-17.2,0-26.79,9.09-26.79,23.31v38.89c0,.71-.58,1.29-1.29,1.29h-18.92c-.71,0-1.29-.58-1.29-1.29v-81.76c0-.71.58-1.29,1.29-1.29ZM1607.48,386.22c0-7.61,5.95-13.39,13.56-13.39s13.56,5.79,13.56,13.39-5.95,13.39-13.56,13.39-13.56-5.79-13.56-13.39ZM1611.58,411.52h18.92c.71,0,1.29.58,1.29,1.29v81.76c0,.71-.58,1.29-1.29,1.29h-18.92c-.71,0-1.29-.58-1.29-1.29v-81.76c0-.71.58-1.29,1.29-1.29ZM1747.52,451.54c0-23.81,17.69-42,41.01-42,11.41,0,20.83,4.3,27.61,11.57v-8.3c0-.71.58-1.29,1.29-1.29h18.92c.71,0,1.29.58,1.29,1.29v73.95c0,25.63-17.36,42.5-43.32,42.5-21.21,0-37.73-11.08-41.68-28.55-.18-.79.45-1.55,1.26-1.55h19.72c.52,0,.97.32,1.18.8,2.8,6.32,10.63,10.28,19.69,10.28,13.23,0,21.66-8.43,21.66-22.49v-5.62c-6.78,7.11-16.2,11.41-27.45,11.41-23.48,0-41.17-18.02-41.17-42ZM1816.14,451.54c0-12.4-10.09-21.83-23.15-21.83s-23.31,9.43-23.31,21.83,9.92,21.99,23.31,21.99,23.15-9.43,23.15-21.99ZM1849.37,453.69c0-25.13,19.51-44.15,45.31-44.15s45.31,19.01,45.31,44.48c0,2.31-.16,4.96-.66,7.11h-66.97c2.81,10.91,11.58,18.02,23.15,18.02,8.48,0,15.57-3.72,19.46-8.9.24-.33.62-.52,1.02-.52h20.74c.94,0,1.55.97,1.17,1.83-6.93,15.7-23.15,26.28-42.89,26.28-26.13,0-45.64-19.01-45.64-44.15ZM1872.52,445.42h44.48c-2.65-10.25-11.24-17.2-22.32-17.2s-19.18,6.78-22.16,17.2ZM1396.91,409.54c-11.09-.1-20.49,4.04-27.19,11.9v-43.05c0-.82-.76-1.43-1.56-1.26l-18.92,4.03c-.59.13-1.02.65-1.02,1.26v112.14c0,.71.58,1.29,1.29,1.29h18.92c.71,0,1.29-.58,1.29-1.29v-45.01c0-11.58,7.94-19.18,19.84-19.18,11.08,0,18.35,7.44,18.35,18.85v45.34c0,.71.58,1.29,1.29,1.29h18.92c.71,0,1.29-.58,1.29-1.29v-51.95c0-17.88-14.62-32.91-32.5-33.08ZM1713.13,421.44c-6.78-7.44-16.2-11.91-27.45-11.91-23.48,0-41.17,19.01-41.17,44.15s17.69,44.15,41.17,44.15c11.24,0,20.67-4.46,27.45-11.91v8.63c0,.71.58,1.29,1.29,1.29h18.92c.71,0,1.29-.58,1.29-1.29v-116.17c0-.82-.76-1.43-1.56-1.26l-18.87,4.03c-.6.13-1.02.65-1.02,1.26l-.04,39.02ZM1689.82,477c-13.36,0-23.35-10.29-23.15-23.72.2-13.08,10.52-23.13,23.59-22.91,13.17.22,22.87,10.23,22.87,23.31s-9.92,23.31-23.31,23.31ZM1494.55,409.54c-11.24,0-20.67,4.46-27.45,11.91v-43.05c0-.82-.76-1.44-1.56-1.26l-18.92,4.03c-.59.13-1.02.65-1.02,1.26v112.14c0,.71.58,1.29,1.29,1.29h18.92c.71,0,1.29-.58,1.29-1.29v-8.63c6.78,7.44,16.2,11.91,27.45,11.91,23.48,0,41.01-19.01,41.01-44.15s-17.53-44.15-41.01-44.15ZM1490.26,477c-13.23,0-23.15-10.09-23.15-23.31s9.92-23.31,23.15-23.31,23.15,10.09,23.15,23.31-9.76,23.31-23.15,23.31ZM1143.04,429.8v-17.1c0-.71-.58-1.29-1.29-1.29h-18.22v-20.66c0-.82-.75-1.43-1.56-1.26l-17.76,3.8c-.59.13-1.02.65-1.02,1.26v9.92c0,3.84-3.11,6.94-6.94,6.94h-6.32c-.71,0-1.29.58-1.29,1.29v17.1c0,.71.58,1.29,1.29,1.29h12.11v38.03c0,17.36,10.09,26.62,29.43,26.62h10.29c.71,0,1.29-.58,1.29-1.29v-17.1c0-.71-.58-1.29-1.29-1.29h-7.15c-6.94,0-11.08-3.97-11.08-10.58v-34.39h18.22c.71,0,1.29-.58,1.29-1.29Z"/>
</svg>